# xmcd CD database file
#
# Track frame offsets:
#	150
#	91811
#	161629
#	256336
#
# Disc length: 4639 seconds
#
# Revision: 0
# Processed by: cddbd v1.5.2PL0 Copyright (c) Steve Scherf et al.
# Submitted via: CDex 1.51
#
DISCID=27121d04
DTITLE=Jennifer R. Bloome - A Journey of the Heart - Imagery and Meditations to Support In-Vitro Fertilization
DYEAR=2006
DGENRE=New Age
TTITLE0=01 Hitting Your Mark - From Shots to Retrieval
TTITLE1=02 Rest and Rejuvenate - From Retrival to Transfer
TTITLE2=03 Baby's Sweet Spot - From Transfer to Implantation
TTITLE3=04 THe Waiting Game - From Implantation to Pregnancy Test
EXTD=YEAR: 2006
EXTT0=
EXTT1=
EXTT2=
EXTT3=
PLAYORDER=
